<?xml version="1.0" encoding="UTF-8"?>
<svg version="1.1" viewBox="0 0 1238 363.6" xml:space="preserve" xmlns="http://www.w3.org/2000/svg" xmlns:cc="http://creativecommons.org/ns#" xmlns:dc="http://purl.org/dc/elements/1.1/" xmlns:rdf="http://www.w3.org/1999/02/22-rdf-syntax-ns#"><title>OpenXR logo</title><desc>An open standard for virtual reality by Khronos Group</desc><metadata><rdf:RDF><cc:Work rdf:about=""><dc:format>image/svg+xml</dc:format><dc:type rdf:resource="http://purl.org/dc/dcmitype/StillImage"/><dc:title/></cc:Work></rdf:RDF></metadata>
<g id="vlpa" transform="translate(-94.78 -70.16)">
	
		
			<path d="m281 243.7c4.2-12.8 10.5-24.1 18.8-34 8.4-9.8 18.8-17.7 31.2-23.6 12.5-5.9 27-8.8 43.5-8.8s31 2.9 43.5 8.8 22.9 13.7 31.2 23.6c8.4 9.8 14.6 21.2 18.8 34s6.3 26.1 6.3 39.9-2.1 27.1-6.3 39.9-10.5 24.1-18.8 34c-8.4 9.8-18.8 17.7-31.2 23.4-12.5 5.8-27 8.7-43.5 8.7s-31-2.9-43.5-8.7-22.9-13.6-31.2-23.4c-8.4-9.9-14.6-21.2-18.8-34s-6.3-26.1-6.3-39.9 2.1-27.1 6.3-39.9zm25.5 70.3c2.7 10 7 18.9 12.9 26.9 5.8 8 13.3 14.4 22.5 19.2s20.1 7.2 32.7 7.2c12.7 0 23.6-2.4 32.7-7.2 9.2-4.8 16.7-11.2 22.5-19.2s10.1-16.9 12.9-26.9c2.7-10 4.1-20.1 4.1-30.3s-1.4-20.3-4.1-30.3-7-18.9-12.9-26.9c-5.8-8-13.4-14.4-22.5-19.2-9.2-4.8-20.1-7.3-32.7-7.3-12.7 0-23.6 2.4-32.7 7.3-9.2 4.8-16.7 11.2-22.5 19.2s-10.1 16.9-12.9 26.9c-2.7 10-4.1 20-4.1 30.3s1.3 20.3 4.1 30.3z" fill="#782d8e"/>
		
		<g fill="#782d8e">
			<path d="m493.8 256.9h21v17.3h0.5c3.5-7.1 8.9-12.3 16.3-15.5s15.6-4.8 24.5-4.8c9.9 0 18.5 1.8 25.9 5.4 7.3 3.6 13.4 8.5 18.3 14.7s8.5 13.3 11 21.4 3.7 16.7 3.7 25.7c0 9.1-1.2 17.7-3.6 25.7-2.4 8.1-6 15.1-10.9 21.2-4.9 6-11 10.8-18.3 14.4-7.3 3.5-15.9 5.3-25.6 5.3-3.3 0-6.9-0.3-10.6-1-3.8-0.7-7.6-1.8-11.4-3.3-3.8-1.6-7.4-3.6-10.8-6.2s-6.2-5.7-8.5-9.5h-0.5v66.1h-21zm99.1 62.9c0-5.9-0.8-11.8-2.4-17.4-1.6-5.7-4-10.8-7.2-15.2-3.2-4.5-7.3-8-12.4-10.6-5-2.6-10.9-4-17.7-4-7.1 0-13.1 1.4-18.1 4.2s-9 6.5-12.1 11-5.4 9.7-6.8 15.5-2.1 11.6-2.1 17.6c0 6.3 0.7 12.3 2.2 18.2s3.8 11 7.1 15.5c3.2 4.5 7.4 8 12.5 10.8 5.1 2.7 11.3 4.1 18.6 4.1 7.1 0 13.1-1.4 18.1-4.2s8.9-6.5 11.9-11.1 5.1-9.9 6.4-15.8c1.3-6.2 2-12.3 2-18.6z"/>
			<path d="m746.6 344.3c-2.8 14.2-9 25-18.6 32.4s-21.7 11.1-36.2 11.1c-10.3 0-19.1-1.7-26.7-5.1-7.5-3.4-13.9-8-19-14-5.1-5.9-9-13-11.5-21.3-2.6-8.3-4-17.2-4.3-27 0-9.6 1.5-18.4 4.5-26.6s7.1-15.2 12.5-21.2c5.4-5.9 11.7-10.6 19.1-13.9 7.3-3.3 15.4-5 24.1-5 11.4 0 20.8 2.4 28.3 7.1s13.5 10.7 18.1 17.9c4.5 7.3 7.7 15.2 9.4 23.8s2.4 16.8 2.1 24.5h-95.8c-0.2 5.6 0.5 10.9 2 16 1.5 5 3.9 9.5 7.2 13.4s7.5 7 12.6 9.3 11.1 3.5 18.1 3.5c8.7 0 16-2.1 21.8-6.2s9.6-10.4 11.4-18.8h20.9zm-20.5-35.6c-0.3-5-1.4-9.7-3.3-14.1-1.9-4.5-4.5-8.3-7.7-11.5s-7.1-5.8-11.5-7.7c-4.5-1.9-9.2-2.8-14.4-2.8-5.4 0-10.4 1-14.7 2.8-4.4 1.9-8.1 4.5-11.3 7.8-3.1 3.3-5.6 7.1-7.4 11.5s-2.9 9-3.2 14z"/>
			<path d="m768.6 256.9h19.8v20.3h0.5c4.5-7.9 10.2-13.8 17.2-17.6s15.1-5.7 24.4-5.7c8.4 0 15.4 1.2 21 3.5s10.1 5.5 13.6 9.7c3.5 4.1 5.9 9 7.3 14.7s2.1 12 2.1 18.9v84.2h-21v-86.6c0-7.9-2.3-14.2-6.9-18.8s-11-6.9-19.1-6.9c-6.4 0-12 1-16.7 3s-8.6 4.8-11.8 8.4c-3.1 3.6-5.5 7.9-7.1 12.7-1.6 4.9-2.4 10.2-2.4 16v72.3h-21v-128.1z"/>
			<path d="m1090 181.9h109.5c9.1 0 17.3 1.5 24.6 4.4s13.6 7 18.8 12.1 9.2 11.1 11.9 17.9 4.1 14 4.1 21.6c0 11.9-2.5 22.3-7.5 31s-13.2 15.4-24.6 19.9v0.6c5.5 1.5 10 3.8 13.7 7 3.6 3.1 6.5 6.9 8.8 11.2 2.3 4.4 3.9 9.1 5 14.1 1 5 1.8 10.1 2.1 15.2 0.2 3.2 0.4 7 0.6 11.4s0.5 8.8 1 13.2c0.5 4.5 1.2 8.8 2.3 12.9 1 4.2 2.6 7.7 4.7 10.5h-44.6c-1.3-3.2-2.3-6.8-3-10.7s-1.2-8-1.7-12.2c-0.5-4.3-0.9-8.6-1.1-13.1-0.3-4.5-0.7-8.7-1.3-12.7-1.5-10.6-4.7-18.4-9.7-23.3-4.9-4.9-13-7.4-24.2-7.4h-44.6v79.3h-44.6v-202.9zm44.7 91.9h48.9c10 0 17.7-2.3 22.9-6.8s7.8-11.9 7.8-22.2c0-9.9-2.6-17-7.8-21.5s-12.8-6.7-22.9-6.7h-48.9z"/>
		</g><g fill="#782d8e">
		<path d="m225.7 249.9c26.3-93.1 212.4-137.5 415.7-99.2 122 23 216 74.3 286.9 122.6-53.1-77.4-187.3-169.1-373.3-194.4-222.2-30.3-437.1 20.3-458.5 118.5-15.4 71 74.4 147.9 209.2 196.2-61.8-44-93.6-95.6-80-143.7z"/>
		<polygon points="955 288.8 887.9 384.9 938.3 384.9 983.5 318 1028 384.9 1081 384.9 1014 288.8"/>
		<path d="m973 273.7h40.7l61.7-91.8h-48.9l-40.6 63.9c-64.9-92.2-160.3-129.2-245.8-141.5 99.2 41.2 176.1 104 215 169.4z"/>
		</g><g transform="translate(-2.761)" fill="#782d8e">
			<polygon points="1281 360.1 1302 360.1 1302 365.7 1295 365.7 1295 385 1288 385 1288 365.7 1281 365.7"/>
			<polygon points="1333 385 1327 385 1327 366.1 1322 385 1317 385 1311 366.1 1311 366.1 1311 385 1305 385 1305 360.1 1315 360.1 1319 376.7 1319 376.7 1323 360.1 1333 360.1"/>
		</g>
	
</g>
</svg>
